<svg width="11" height="18" viewBox="0 0 11 18" fill="none" xmlns="http://www.w3.org/2000/svg">
<path fill-rule="evenodd" clip-rule="evenodd" d="M7.52316 12.8396C8.52755 12.5995 9.48353 12.1913 10.3501 11.6324C10.6656 11.4262 10.8871 11.1052 10.9672 10.7384C11.0473 10.3716 10.9795 9.98817 10.7784 9.67048C10.5773 9.35279 10.259 9.12612 9.89172 9.03911C9.52444 8.95211 9.13747 9.0117 8.8139 9.20512C7.84247 9.88077 6.68556 10.2432 5.49998 10.2432C4.31441 10.2432 3.15752 9.88077 2.1861 9.20512C1.86253 9.0117 1.47556 8.95211 1.10828 9.03911C0.740994 9.12612 0.422668 9.35279 0.221602 9.67048C0.0205349 9.98817 -0.047254 10.3716 0.0328149 10.7384C0.112884 11.1052 0.334423 11.4262 0.649864 11.6324C1.52904 12.1819 2.4954 12.5796 3.50804 12.8086L0.882248 15.5449C0.748349 15.678 0.642136 15.836 0.56967 16.01C0.497205 16.1839 0.459911 16.3703 0.459911 16.5585C0.459911 16.7468 0.497205 16.9332 0.56967 17.1071C0.642136 17.281 0.748349 17.439 0.882248 17.5722C1.01615 17.7053 1.17511 17.8109 1.35005 17.8829C1.525 17.9549 1.71253 17.992 1.90189 17.992C2.09125 17.992 2.27875 17.9549 2.4537 17.8829C2.62865 17.8109 2.78761 17.7053 2.92151 17.5722L5.49998 14.8838L8.07849 17.5722C8.21199 17.707 8.37103 17.8142 8.54642 17.8877C8.72182 17.9611 8.9101 17.9993 9.10041 18C9.29072 18.0007 9.4793 17.964 9.65526 17.8919C9.83122 17.8198 9.99107 17.7138 10.1256 17.58C10.2602 17.4462 10.3667 17.2872 10.4391 17.1122C10.5116 16.9373 10.5484 16.7498 10.5476 16.5606C10.5468 16.3714 10.5083 16.1843 10.4343 16.0099C10.3604 15.8356 10.2524 15.6775 10.1167 15.5449L7.52316 12.8396ZM5.50603 9.0011C4.61064 9.0011 3.73536 8.73714 2.99086 8.24261C2.24637 7.74809 1.66609 7.0452 1.32344 6.22284C0.980783 5.40047 0.891132 4.49556 1.06581 3.62254C1.2405 2.74952 1.67169 1.9476 2.30483 1.31818C2.93797 0.688769 3.74464 0.260134 4.62283 0.0864796C5.50102 -0.0871752 6.41128 0.00194788 7.23852 0.342584C8.06575 0.68322 8.7728 1.26007 9.27025 2.00018C9.76771 2.74029 10.0332 3.61042 10.0332 4.50055C10.0332 5.69417 9.55625 6.8389 8.70724 7.68292C7.85823 8.52693 6.70672 9.0011 5.50603 9.0011ZM5.50603 2.5003C5.10808 2.5003 4.71906 2.61762 4.38817 2.83741C4.05729 3.0572 3.79941 3.36959 3.64712 3.73509C3.49483 4.10059 3.45496 4.50277 3.5326 4.89078C3.61024 5.27879 3.80188 5.6352 4.08327 5.91494C4.36467 6.19468 4.7232 6.38517 5.11351 6.46235C5.50381 6.53953 5.90838 6.49993 6.27604 6.34854C6.6437 6.19714 6.95793 5.94077 7.17902 5.61183C7.40011 5.28289 7.51812 4.89616 7.51812 4.50055C7.51812 3.97005 7.30613 3.46128 6.92879 3.08616C6.55146 2.71104 6.03967 2.5003 5.50603 2.5003Z" fill="white"/>
</svg>
